{
    "asset" : {
        "generator" : "Khronos glTF Blender I/O v1.6.16",
        "version" : "2.0"
    },
    "scene" : 0,
    "scenes" : [
        {
            "name" : "Scene",
            "nodes" : [
                0,
                1,
                2,
                3,
                4,
                5,
                6,
                7,
                8
            ]
        }
    ],
    "nodes" : [
        {
            "name" : "mainCubes",
            "rotation" : [
                0.049270082265138626,
                0,
                0,
                0.9987854957580566
            ],
            "scale" : [
                1.5955595970153809,
                0.03829337656497955,
                0.4659033715724945
            ],
            "translation" : [
                0.025707930326461792,
                0.92445307970047,
                -0.12578323483467102
            ]
        },
        {
            "mesh" : 0,
            "name" : "heading",
            "rotation" : [
                0.7653154134750366,
                -0.03341438248753548,
                0.02803799696266651,
                0.6421759128570557
            ],
            "scale" : [
                0.816928505897522,
                0.7876805663108826,
                0.816928505897522
            ],
            "translation" : [
                0.05324766784906387,
                1.0693811178207397,
                0.12030959129333496
            ]
        },
        {
            "mesh" : 1,
            "name" : "linesHeader",
            "rotation" : [
                0.7653154134750366,
                0.03341438248753548,
                -0.02803799696266651,
                0.6421759128570557
            ],
            "scale" : [
                0.7434049844741821,
                0.7876805663108826,
                0.04901571571826935
            ],
            "translation" : [
                -0.821355402469635,
                1.1881250143051147,
                -0.2039952427148819
            ]
        },
        {
            "mesh" : 2,
            "name" : "cubeHeader",
            "rotation" : [
                0.7906857132911682,
                -0.061101168394088745,
                0.061101168394088745,
                0.6060937643051147
            ],
            "scale" : [
                0.2520577609539032,
                0.46442753076553345,
                0.2678113877773285
            ],
            "translation" : [
                1.226926326751709,
                2.2579240798950195,
                0.33770304918289185
            ]
        },
        {
            "mesh" : 3,
            "name" : "fedep",
            "rotation" : [
                0.7071067690849304,
                0,
                0,
                0.7071068286895752
            ],
            "scale" : [
                0.6529868245124817,
                0.6529868245124817,
                0.6529868245124817
            ],
            "translation" : [
                -1.48264479637146,
                0.2537475824356079,
                0.3429775834083557
            ]
        },
        {
            "mesh" : 4,
            "name" : "frontend",
            "rotation" : [
                0.7071067690849304,
                0,
                0,
                0.7071068286895752
            ],
            "scale" : [
                0.6529868245124817,
                0.6529868245124817,
                0.6529868245124817
            ],
            "translation" : [
                -1.5491113662719727,
                0.1942281723022461,
                0.3893394470214844
            ]
        },
        {
            "mesh" : 5,
            "name" : "dev",
            "rotation" : [
                -0.04357786476612091,
                -0.04357786104083061,
                0.001902650692500174,
                0.9980973601341248
            ],
            "scale" : [
                0.32649344205856323,
                0.11427269876003265,
                0.6007480621337891
            ],
            "translation" : [
                0.25979191064834595,
                -0.7245209813117981,
                -0.22741574048995972
            ]
        },
        {
            "mesh" : 6,
            "name" : "elo",
            "rotation" : [
                -0.04357786104083061,
                -0.04357786476612091,
                -0.0019026503432542086,
                0.9980973601341248
            ],
            "scale" : [
                0.9076517820358276,
                0.03264934569597244,
                0.4179116487503052
            ],
            "translation" : [
                -0.008199989795684814,
                -1.5622749328613281,
                0.0969160795211792
            ]
        },
        {
            "mesh" : 7,
            "name" : "per",
            "rotation" : [
                -0.08715572208166122,
                0,
                0,
                0.9961947202682495
            ],
            "scale" : [
                0.7770543694496155,
                0.22201547026634216,
                0.4179115891456604
            ],
            "translation" : [
                -0.6788722276687622,
                -1.9495359659194946,
                0.09561009705066681
            ]
        }
    ],
    "meshes" : [
        {
            "name" : "heading",
            "primitives" : [
                {
                    "attributes" : {
                        "POSITION" : 0,
                        "NORMAL" : 1,
                        "TEXCOORD_0" : 2
                    },
                    "indices" : 3
                }
            ]
        },
        {
            "name" : "linesHeader",
            "primitives" : [
                {
                    "attributes" : {
                        "POSITION" : 4,
                        "NORMAL" : 5,
                        "TEXCOORD_0" : 6
                    },
                    "indices" : 7
                }
            ]
        },
        {
            "name" : "cubeHeader",
            "primitives" : [
                {
                    "attributes" : {
                        "POSITION" : 8,
                        "NORMAL" : 9,
                        "TEXCOORD_0" : 10
                    },
                    "indices" : 11
                }
            ]
        },
        {
            "name" : "fedep",
            "primitives" : [
                {
                    "attributes" : {
                        "POSITION" : 12,
                        "NORMAL" : 13,
                        "TEXCOORD_0" : 14
                    },
                    "indices" : 15
                }
            ]
        },
        {
            "name" : "frontend",
            "primitives" : [
                {
                    "attributes" : {
                        "POSITION" : 16,
                        "NORMAL" : 17,
                        "TEXCOORD_0" : 18
                    },
                    "indices" : 19
                }
            ]
        },
        {
            "name" : "dev",
            "primitives" : [
                {
                    "attributes" : {
                        "POSITION" : 20,
                        "NORMAL" : 21,
                        "TEXCOORD_0" : 22
                    },
                    "indices" : 23
                }
            ]
        },
        {
            "name" : "elo",
            "primitives" : [
                {
                    "attributes" : {
                        "POSITION" : 24,
                        "NORMAL" : 25,
                        "TEXCOORD_0" : 26
                    },
                    "indices" : 27
                }
            ]
        },
        {
            "name" : "per",
            "primitives" : [
                {
                    "attributes" : {
                        "POSITION" : 28,
                        "NORMAL" : 29,
                        "TEXCOORD_0" : 30
                    },
                    "indices" : 31
                }
            ]
        }
    ],
    "accessors" : [
        {
            "bufferView" : 0,
            "componentType" : 5126,
            "count" : 5190,
            "max" : [
                1.7380000352859497,
                0.7423644661903381,
                0.009000000543892384
            ],
            "min" : [
                -1.953245759010315,
                -0.3999999761581421,
                -1.7934801578521729
            ],
            "type" : "VEC3"
        },
        {
            "bufferView" : 1,
            "componentType" : 5126,
            "count" : 5190,
            "type" : "VEC3"
        },
        {
            "bufferView" : 2,
            "componentType" : 5126,
            "count" : 5190,
            "type" : "VEC2"
        },
        {
            "bufferView" : 3,
            "componentType" : 5123,
            "count" : 8340,
            "type" : "SCALAR"
        },
        {
            "bufferView" : 4,
            "componentType" : 5126,
            "count" : 96,
            "max" : [
                3.244631767272949,
                1.400092363357544,
                7.661932468414307
            ],
            "min" : [
                -1,
                -1.0062191486358643,
                -15.809745788574219
            ],
            "type" : "VEC3"
        },
        {
            "bufferView" : 5,
            "componentType" : 5126,
            "count" : 96,
            "type" : "VEC3"
        },
        {
            "bufferView" : 6,
            "componentType" : 5126,
            "count" : 96,
            "type" : "VEC2"
        },
        {
            "bufferView" : 7,
            "componentType" : 5123,
            "count" : 144,
            "type" : "SCALAR"
        },
        {
            "bufferView" : 8,
            "componentType" : 5126,
            "count" : 24,
            "max" : [
                0.9832282662391663,
                1.029319167137146,
                0.9996384978294373
            ],
            "min" : [
                -1.3825547695159912,
                -0.9901883006095886,
                -1.0443404912948608
            ],
            "type" : "VEC3"
        },
        {
            "bufferView" : 9,
            "componentType" : 5126,
            "count" : 24,
            "type" : "VEC3"
        },
        {
            "bufferView" : 10,
            "componentType" : 5126,
            "count" : 24,
            "type" : "VEC2"
        },
        {
            "bufferView" : 11,
            "componentType" : 5123,
            "count" : 36,
            "type" : "SCALAR"
        },
        {
            "bufferView" : 12,
            "componentType" : 5126,
            "count" : 3350,
            "max" : [
                4.389240741729736,
                0.30000001192092896,
                2.671708345413208
            ],
            "min" : [
                0.07600000500679016,
                -0.776308536529541,
                -0.6910000443458557
            ],
            "type" : "VEC3"
        },
        {
            "bufferView" : 13,
            "componentType" : 5126,
            "count" : 3350,
            "type" : "VEC3"
        },
        {
            "bufferView" : 14,
            "componentType" : 5126,
            "count" : 3350,
            "type" : "VEC2"
        },
        {
            "bufferView" : 15,
            "componentType" : 5123,
            "count" : 5664,
            "type" : "SCALAR"
        },
        {
            "bufferView" : 16,
            "componentType" : 5126,
            "count" : 1979,
            "max" : [
                4.495070934295654,
                0.3120516538619995,
                1.0597820281982422
            ],
            "min" : [
                0.07199406623840332,
                -1.0300941467285156,
                -0.7793108224868774
            ],
            "type" : "VEC3"
        },
        {
            "bufferView" : 17,
            "componentType" : 5126,
            "count" : 1979,
            "type" : "VEC3"
        },
        {
            "bufferView" : 18,
            "componentType" : 5126,
            "count" : 1979,
            "type" : "VEC2"
        },
        {
            "bufferView" : 19,
            "componentType" : 5123,
            "count" : 3612,
            "type" : "SCALAR"
        },
        {
            "bufferView" : 20,
            "componentType" : 5126,
            "count" : 616,
            "max" : [
                2.0767641067504883,
                3.6151232719421387,
                1.2835444211959839
            ],
            "min" : [
                -5.51361083984375,
                -1.8868584632873535,
                -0.4668189287185669
            ],
            "type" : "VEC3"
        },
        {
            "bufferView" : 21,
            "componentType" : 5126,
            "count" : 616,
            "type" : "VEC3"
        },
        {
            "bufferView" : 22,
            "componentType" : 5126,
            "count" : 616,
            "type" : "VEC2"
        },
        {
            "bufferView" : 23,
            "componentType" : 5123,
            "count" : 924,
            "type" : "SCALAR"
        },
        {
            "bufferView" : 24,
            "componentType" : 5126,
            "count" : 968,
            "max" : [
                1.0199698209762573,
                21.42469596862793,
                1.0001473426818848
            ],
            "min" : [
                -1.0920249223709106,
                -1,
                -1
            ],
            "type" : "VEC3"
        },
        {
            "bufferView" : 25,
            "componentType" : 5126,
            "count" : 968,
            "type" : "VEC3"
        },
        {
            "bufferView" : 26,
            "componentType" : 5126,
            "count" : 968,
            "type" : "VEC2"
        },
        {
            "bufferView" : 27,
            "componentType" : 5123,
            "count" : 1452,
            "type" : "SCALAR"
        },
        {
            "bufferView" : 28,
            "componentType" : 5126,
            "count" : 1318,
            "max" : [
                2.4600577354431152,
                1.0446555614471436,
                1.290419101715088
            ],
            "min" : [
                -0.8709176778793335,
                -1.1114739179611206,
                -1.1278518438339233
            ],
            "type" : "VEC3"
        },
        {
            "bufferView" : 29,
            "componentType" : 5126,
            "count" : 1318,
            "type" : "VEC3"
        },
        {
            "bufferView" : 30,
            "componentType" : 5126,
            "count" : 1318,
            "type" : "VEC2"
        },
        {
            "bufferView" : 31,
            "componentType" : 5123,
            "count" : 1968,
            "type" : "SCALAR"
        }
    ],
    "bufferViews" : [
        {
            "buffer" : 0,
            "byteLength" : 62280,
            "byteOffset" : 0
        },
        {
            "buffer" : 0,
            "byteLength" : 62280,
            "byteOffset" : 62280
        },
        {
            "buffer" : 0,
            "byteLength" : 41520,
            "byteOffset" : 124560
        },
        {
            "buffer" : 0,
            "byteLength" : 16680,
            "byteOffset" : 166080
        },
        {
            "buffer" : 0,
            "byteLength" : 1152,
            "byteOffset" : 182760
        },
        {
            "buffer" : 0,
            "byteLength" : 1152,
            "byteOffset" : 183912
        },
        {
            "buffer" : 0,
            "byteLength" : 768,
            "byteOffset" : 185064
        },
        {
            "buffer" : 0,
            "byteLength" : 288,
            "byteOffset" : 185832
        },
        {
            "buffer" : 0,
            "byteLength" : 288,
            "byteOffset" : 186120
        },
        {
            "buffer" : 0,
            "byteLength" : 288,
            "byteOffset" : 186408
        },
        {
            "buffer" : 0,
            "byteLength" : 192,
            "byteOffset" : 186696
        },
        {
            "buffer" : 0,
            "byteLength" : 72,
            "byteOffset" : 186888
        },
        {
            "buffer" : 0,
            "byteLength" : 40200,
            "byteOffset" : 186960
        },
        {
            "buffer" : 0,
            "byteLength" : 40200,
            "byteOffset" : 227160
        },
        {
            "buffer" : 0,
            "byteLength" : 26800,
            "byteOffset" : 267360
        },
        {
            "buffer" : 0,
            "byteLength" : 11328,
            "byteOffset" : 294160
        },
        {
            "buffer" : 0,
            "byteLength" : 23748,
            "byteOffset" : 305488
        },
        {
            "buffer" : 0,
            "byteLength" : 23748,
            "byteOffset" : 329236
        },
        {
            "buffer" : 0,
            "byteLength" : 15832,
            "byteOffset" : 352984
        },
        {
            "buffer" : 0,
            "byteLength" : 7224,
            "byteOffset" : 368816
        },
        {
            "buffer" : 0,
            "byteLength" : 7392,
            "byteOffset" : 376040
        },
        {
            "buffer" : 0,
            "byteLength" : 7392,
            "byteOffset" : 383432
        },
        {
            "buffer" : 0,
            "byteLength" : 4928,
            "byteOffset" : 390824
        },
        {
            "buffer" : 0,
            "byteLength" : 1848,
            "byteOffset" : 395752
        },
        {
            "buffer" : 0,
            "byteLength" : 11616,
            "byteOffset" : 397600
        },
        {
            "buffer" : 0,
            "byteLength" : 11616,
            "byteOffset" : 409216
        },
        {
            "buffer" : 0,
            "byteLength" : 7744,
            "byteOffset" : 420832
        },
        {
            "buffer" : 0,
            "byteLength" : 2904,
            "byteOffset" : 428576
        },
        {
            "buffer" : 0,
            "byteLength" : 15816,
            "byteOffset" : 431480
        },
        {
            "buffer" : 0,
            "byteLength" : 15816,
            "byteOffset" : 447296
        },
        {
            "buffer" : 0,
            "byteLength" : 10544,
            "byteOffset" : 463112
        },
        {
            "buffer" : 0,
            "byteLength" : 3936,
            "byteOffset" : 473656
        }
    ],
    "buffers" : [
        {
            "byteLength" : 477592,
            "uri" : "data:application/octet-stream;base64,"
        }
    ]
}
