{
    "asset" : {
        "generator" : "Khronos glTF Blender I/O v1.6.16",
        "version" : "2.0"
    },
    "scene" : 0,
    "scenes" : [
        {
            "name" : "Scene",
            "nodes" : [
                0,
                1,
                2,
                3,
                4,
                5,
                6
            ]
        }
    ],
    "nodes" : [
        {
            "mesh" : 0,
            "name" : "dev",
            "rotation" : [
                -0.0435778833925724,
                -0.04357786104083061,
                0.0019026512745767832,
                0.9980974197387695
            ],
            "scale" : [
                0.38134095072746277,
                0.13346727192401886,
                0.48506543040275574
            ],
            "translation" : [
                0.9511355757713318,
                -1.0623688697814941,
                0.07706969976425171
            ]
        },
        {
            "mesh" : 1,
            "name" : "elo",
            "rotation" : [
                -0.0435778833925724,
                -0.04357786849141121,
                -0.001902649411931634,
                0.9980974197387695
            ],
            "scale" : [
                1.06011164188385,
                0.038134098052978516,
                0.3374367952346802
            ],
            "translation" : [
                0.6374940276145935,
                -2.042825222015381,
                0.33672207593917847
            ]
        },
        {
            "mesh" : 2,
            "name" : "per",
            "rotation" : [
                -0.08715573698282242,
                0,
                0,
                0.9961947798728943
            ],
            "scale" : [
                0.9094170928001404,
                0.2577405869960785,
                0.34025752544403076
            ],
            "translation" : [
                -0.1474195420742035,
                -2.496051788330078,
                0.3356768488883972
            ]
        },
        {
            "mesh" : 3,
            "name" : "owner",
            "rotation" : [
                0.7491065859794617,
                0.06553833186626434,
                -0.05745304003357887,
                0.6566911935806274
            ],
            "scale" : [
                0.7015892863273621,
                0.7015892863273621,
                0.7015892863273621
            ],
            "translation" : [
                -3.8236002922058105,
                2.161222457885742,
                0.8113614916801453
            ]
        },
        {
            "mesh" : 4,
            "name" : "ownerCubes",
            "rotation" : [
                0.7365756034851074,
                0.029468823224306107,
                -0.032159581780433655,
                0.674947202205658
            ],
            "scale" : [
                1.1208070516586304,
                0.8005764484405518,
                0.09606920182704926
            ],
            "translation" : [
                -2.700418472290039,
                0.8586466908454895,
                -0.10344558954238892
            ]
        },
        {
            "mesh" : 5,
            "name" : "fede",
            "rotation" : [
                0.674947202205658,
                0.032159578055143356,
                -0.029468826949596405,
                0.7365756034851074
            ],
            "scale" : [
                0.8005765080451965,
                0.8005764484405518,
                0.8005765080451965
            ],
            "translation" : [
                -0.49101144075393677,
                -1.9009276628494263,
                0.22675937414169312
            ]
        },
        {
            "mesh" : 6,
            "name" : "Text",
            "rotation" : [
                0.7071067690849304,
                0,
                0,
                0.7071068286895752
            ],
            "scale" : [
                0.8966607451438904,
                0.8966607451438904,
                0.8966607451438904
            ],
            "translation" : [
                1.6843816041946411,
                -0.3866182565689087,
                0.056377410888671875
            ]
        }
    ],
    "meshes" : [
        {
            "name" : "dev",
            "primitives" : [
                {
                    "attributes" : {
                        "POSITION" : 0,
                        "NORMAL" : 1,
                        "TEXCOORD_0" : 2
                    },
                    "indices" : 3
                }
            ]
        },
        {
            "name" : "elo",
            "primitives" : [
                {
                    "attributes" : {
                        "POSITION" : 4,
                        "NORMAL" : 5,
                        "TEXCOORD_0" : 6
                    },
                    "indices" : 7
                }
            ]
        },
        {
            "name" : "per",
            "primitives" : [
                {
                    "attributes" : {
                        "POSITION" : 8,
                        "NORMAL" : 9,
                        "TEXCOORD_0" : 10
                    },
                    "indices" : 11
                }
            ]
        },
        {
            "name" : "owner",
            "primitives" : [
                {
                    "attributes" : {
                        "POSITION" : 12,
                        "NORMAL" : 13,
                        "TEXCOORD_0" : 14
                    },
                    "indices" : 15
                }
            ]
        },
        {
            "name" : "ownerCubes",
            "primitives" : [
                {
                    "attributes" : {
                        "POSITION" : 16,
                        "NORMAL" : 17,
                        "TEXCOORD_0" : 18
                    },
                    "indices" : 19
                }
            ]
        },
        {
            "name" : "fede",
            "primitives" : [
                {
                    "attributes" : {
                        "POSITION" : 20,
                        "NORMAL" : 21,
                        "TEXCOORD_0" : 22
                    },
                    "indices" : 23
                }
            ]
        },
        {
            "name" : "Text.013",
            "primitives" : [
                {
                    "attributes" : {
                        "POSITION" : 24,
                        "NORMAL" : 25,
                        "TEXCOORD_0" : 26
                    },
                    "indices" : 27
                }
            ]
        }
    ],
    "accessors" : [
        {
            "bufferView" : 0,
            "componentType" : 5126,
            "count" : 736,
            "max" : [
                2.077918767929077,
                3.570091724395752,
                1.269179105758667
            ],
            "min" : [
                -5.939513206481934,
                -1.8876092433929443,
                -1.4558358192443848
            ],
            "type" : "VEC3"
        },
        {
            "bufferView" : 1,
            "componentType" : 5126,
            "count" : 736,
            "type" : "VEC3"
        },
        {
            "bufferView" : 2,
            "componentType" : 5126,
            "count" : 736,
            "type" : "VEC2"
        },
        {
            "bufferView" : 3,
            "componentType" : 5123,
            "count" : 1080,
            "type" : "SCALAR"
        },
        {
            "bufferView" : 4,
            "componentType" : 5126,
            "count" : 1042,
            "max" : [
                1.0199698209762573,
                21.42469596862793,
                1.0001473426818848
            ],
            "min" : [
                -1.1134021282196045,
                -1.0000001192092896,
                -1.6085978746414185
            ],
            "type" : "VEC3"
        },
        {
            "bufferView" : 5,
            "componentType" : 5126,
            "count" : 1042,
            "type" : "VEC3"
        },
        {
            "bufferView" : 6,
            "componentType" : 5126,
            "count" : 1042,
            "type" : "VEC2"
        },
        {
            "bufferView" : 7,
            "componentType" : 5123,
            "count" : 1542,
            "type" : "SCALAR"
        },
        {
            "bufferView" : 8,
            "componentType" : 5126,
            "count" : 1349,
            "max" : [
                2.4600577354431152,
                1.0446555614471436,
                1.290419101715088
            ],
            "min" : [
                -0.9030524492263794,
                -1.1114739179611206,
                -2.560917854309082
            ],
            "type" : "VEC3"
        },
        {
            "bufferView" : 9,
            "componentType" : 5126,
            "count" : 1349,
            "type" : "VEC3"
        },
        {
            "bufferView" : 10,
            "componentType" : 5126,
            "count" : 1349,
            "type" : "VEC2"
        },
        {
            "bufferView" : 11,
            "componentType" : 5123,
            "count" : 1995,
            "type" : "SCALAR"
        },
        {
            "bufferView" : 12,
            "componentType" : 5126,
            "count" : 5312,
            "max" : [
                6.573575019836426,
                0.5766082406044006,
                1.7507097721099854
            ],
            "min" : [
                0.049399927258491516,
                -0.9190574884414673,
                -0.6910000443458557
            ],
            "type" : "VEC3"
        },
        {
            "bufferView" : 13,
            "componentType" : 5126,
            "count" : 5312,
            "type" : "VEC3"
        },
        {
            "bufferView" : 14,
            "componentType" : 5126,
            "count" : 5312,
            "type" : "VEC2"
        },
        {
            "bufferView" : 15,
            "componentType" : 5123,
            "count" : 8340,
            "type" : "SCALAR"
        },
        {
            "bufferView" : 16,
            "componentType" : 5126,
            "count" : 120,
            "max" : [
                3.709169864654541,
                1.4480910301208496,
                1
            ],
            "min" : [
                -1.0192701816558838,
                -1.1703070402145386,
                -20.35041618347168
            ],
            "type" : "VEC3"
        },
        {
            "bufferView" : 17,
            "componentType" : 5126,
            "count" : 120,
            "type" : "VEC3"
        },
        {
            "bufferView" : 18,
            "componentType" : 5126,
            "count" : 120,
            "type" : "VEC2"
        },
        {
            "bufferView" : 19,
            "componentType" : 5123,
            "count" : 180,
            "type" : "SCALAR"
        },
        {
            "bufferView" : 20,
            "componentType" : 5126,
            "count" : 3596,
            "max" : [
                5.0711517333984375,
                0.8396106362342834,
                0.009000000543892384
            ],
            "min" : [
                -0.8448431491851807,
                -0.29999998211860657,
                -2.9397921562194824
            ],
            "type" : "VEC3"
        },
        {
            "bufferView" : 21,
            "componentType" : 5126,
            "count" : 3596,
            "type" : "VEC3"
        },
        {
            "bufferView" : 22,
            "componentType" : 5126,
            "count" : 3596,
            "type" : "VEC2"
        },
        {
            "bufferView" : 23,
            "componentType" : 5123,
            "count" : 5664,
            "type" : "SCALAR"
        },
        {
            "bufferView" : 24,
            "componentType" : 5126,
            "count" : 1888,
            "max" : [
                2.1270174980163574,
                0.8410840630531311,
                0.30875641107559204
            ],
            "min" : [
                -3.870495319366455,
                -1.173426866531372,
                -1.1447038650512695
            ],
            "type" : "VEC3"
        },
        {
            "bufferView" : 25,
            "componentType" : 5126,
            "count" : 1888,
            "type" : "VEC3"
        },
        {
            "bufferView" : 26,
            "componentType" : 5126,
            "count" : 1888,
            "type" : "VEC2"
        },
        {
            "bufferView" : 27,
            "componentType" : 5123,
            "count" : 3672,
            "type" : "SCALAR"
        }
    ],
    "bufferViews" : [
        {
            "buffer" : 0,
            "byteLength" : 8832,
            "byteOffset" : 0
        },
        {
            "buffer" : 0,
            "byteLength" : 8832,
            "byteOffset" : 8832
        },
        {
            "buffer" : 0,
            "byteLength" : 5888,
            "byteOffset" : 17664
        },
        {
            "buffer" : 0,
            "byteLength" : 2160,
            "byteOffset" : 23552
        },
        {
            "buffer" : 0,
            "byteLength" : 12504,
            "byteOffset" : 25712
        },
        {
            "buffer" : 0,
            "byteLength" : 12504,
            "byteOffset" : 38216
        },
        {
            "buffer" : 0,
            "byteLength" : 8336,
            "byteOffset" : 50720
        },
        {
            "buffer" : 0,
            "byteLength" : 3084,
            "byteOffset" : 59056
        },
        {
            "buffer" : 0,
            "byteLength" : 16188,
            "byteOffset" : 62140
        },
        {
            "buffer" : 0,
            "byteLength" : 16188,
            "byteOffset" : 78328
        },
        {
            "buffer" : 0,
            "byteLength" : 10792,
            "byteOffset" : 94516
        },
        {
            "buffer" : 0,
            "byteLength" : 3990,
            "byteOffset" : 105308
        },
        {
            "buffer" : 0,
            "byteLength" : 63744,
            "byteOffset" : 109300
        },
        {
            "buffer" : 0,
            "byteLength" : 63744,
            "byteOffset" : 173044
        },
        {
            "buffer" : 0,
            "byteLength" : 42496,
            "byteOffset" : 236788
        },
        {
            "buffer" : 0,
            "byteLength" : 16680,
            "byteOffset" : 279284
        },
        {
            "buffer" : 0,
            "byteLength" : 1440,
            "byteOffset" : 295964
        },
        {
            "buffer" : 0,
            "byteLength" : 1440,
            "byteOffset" : 297404
        },
        {
            "buffer" : 0,
            "byteLength" : 960,
            "byteOffset" : 298844
        },
        {
            "buffer" : 0,
            "byteLength" : 360,
            "byteOffset" : 299804
        },
        {
            "buffer" : 0,
            "byteLength" : 43152,
            "byteOffset" : 300164
        },
        {
            "buffer" : 0,
            "byteLength" : 43152,
            "byteOffset" : 343316
        },
        {
            "buffer" : 0,
            "byteLength" : 28768,
            "byteOffset" : 386468
        },
        {
            "buffer" : 0,
            "byteLength" : 11328,
            "byteOffset" : 415236
        },
        {
            "buffer" : 0,
            "byteLength" : 22656,
            "byteOffset" : 426564
        },
        {
            "buffer" : 0,
            "byteLength" : 22656,
            "byteOffset" : 449220
        },
        {
            "buffer" : 0,
            "byteLength" : 15104,
            "byteOffset" : 471876
        },
        {
            "buffer" : 0,
            "byteLength" : 7344,
            "byteOffset" : 486980
        }
    ],
    "buffers" : [
        {
            "byteLength" : 494324,
            "uri" : "data:application/octet-stream;base64,"
        }
    ]
}
